<?xml version="1.0" encoding="utf-8"?>
<svg viewBox="41.382 24.982 1549.032 1343.266" xmlns="http://www.w3.org/2000/svg">
  <path d="M 575.827 249.272 C 575.827 244.912 580.134 245.335 582.484 242.986 C 584.056 241.413 586.315 238.784 588.031 237.069 C 589.049 236.051 588.4 231.114 588.4 229.303 C 588.4 221.568 589.041 212.464 586.182 206.744 C 585.688 205.757 580.668 201.164 582.484 199.348 C 584.942 196.89 590.439 196.94 592.838 194.541 C 595.152 192.227 596.981 188.918 599.865 186.035 C 601.419 184.481 599.865 178.796 599.865 176.79 C 599.865 168.834 596.136 159.07 601.344 153.862 C 604.59 150.616 612.464 151.101 616.506 153.122 C 621.331 155.535 630.678 153.373 633.517 150.534 C 634.322 149.729 637.139 150.24 637.955 149.424 C 641.699 145.68 640.92 138.323 644.242 135.002 C 645.224 134.019 644.908 131.007 645.721 130.194 C 649.878 126.037 655.451 121.944 659.404 117.99 C 661.444 115.95 665.694 116.141 669.389 116.141 C 670.155 116.141 673.708 116.629 674.196 116.141 C 676.892 113.445 681.854 112.921 684.181 110.594 C 684.768 110.007 689.127 110.733 689.358 110.964 C 692.646 114.252 695.687 118.032 698.973 121.319 C 700.75 123.095 707.445 129.656 712.286 127.236 C 716.212 125.273 718.691 123.848 722.271 122.058 C 722.422 121.983 724.017 121.955 724.12 122.058 C 726.406 124.344 732.168 123.82 734.475 126.126 C 735.327 126.978 737.754 125.917 738.912 126.496 C 742.782 128.431 748.789 127.606 753.335 127.606 C 754.001 127.606 757.337 128.041 757.773 127.606 C 761.501 123.877 761.471 120.707 761.471 113.553 C 761.471 112.669 762.033 108.568 761.471 108.006 C 758.471 105.006 759.751 98.261 761.841 96.172 C 762.829 95.183 764.29 88.036 766.278 88.036 C 768.078 86.894 770.859 87.441 772.606 85.694 C 777.412 80.888 784.198 77.8 788.508 73.49 C 789.349 72.65 791.659 69.808 790.727 67.943 C 790.34 67.169 789.434 66.09 789.987 64.985 C 790.288 64.382 791.997 62.556 791.097 61.656 C 790.664 61.224 788.181 60.462 788.878 59.068 C 790.226 56.372 794.096 58.677 796.274 57.588 C 800.271 55.59 803.644 55.198 807.738 53.151 C 813.276 50.381 810.569 40.705 814.394 36.879 C 818.28 32.994 822.582 36.862 828.077 35.03 C 832.663 33.502 836.228 25.785 840.651 25.785 C 841.705 25.785 846.342 25.189 846.938 25.785 C 847.975 26.822 849.335 27.443 850.266 28.374 C 851.691 29.799 855.445 28.375 856.922 29.853 C 858.069 31 856.631 34.739 857.662 35.77 C 860.657 38.764 860.684 43.6 863.209 46.124 C 865.426 48.342 867.055 50.34 868.756 52.041 C 869.234 52.519 872.924 52.041 873.564 52.041 C 876.709 52.041 878.73 52.792 880.59 50.932 C 883.333 48.189 879.227 43.108 883.549 40.947 C 889.323 38.059 886.366 47.269 892.424 45.755 C 894.855 45.147 898.213 42.554 899.82 40.947 C 900.451 40.317 905.185 40.947 906.107 40.947 C 912.644 40.947 918.512 42.74 924.228 44.645 C 924.894 44.867 930.377 44.508 930.514 44.645 C 932.757 46.888 928.105 52.591 930.144 54.63 C 933.239 57.724 934.073 62.118 936.061 66.094 C 937.383 68.737 935.582 73.271 936.801 75.709 C 938.368 78.843 943.867 80.167 947.525 81.996 C 949.961 83.214 953.764 82.414 955.291 80.886 C 956.031 80.147 955.291 77.928 956.031 77.188 C 957.34 75.88 960.593 75.462 963.057 74.23 C 966.344 72.587 969.053 68.273 971.933 66.834 C 976.838 64.381 981.646 60.868 985.985 58.698 C 989.393 56.994 994.063 58.756 996.34 56.479 C 996.526 56.293 998.839 55.65 999.299 56.109 C 1000.831 57.642 1000.83 60.573 1002.997 61.656 C 1007.218 63.767 1013.65 68.982 1016.68 72.011 C 1018.96 74.291 1025.863 71.949 1028.144 74.23 C 1031.94 78.026 1036.478 77.748 1042.566 79.777 C 1045.096 80.62 1048.636 80.3 1050.702 82.366 C 1051.811 83.475 1051.072 86.434 1052.181 87.543 C 1053.827 89.189 1058.516 88.331 1059.947 89.762 C 1061.024 90.838 1058.201 92.885 1058.098 93.09 C 1055.57 98.147 1050.789 94.852 1047.374 98.267 C 1044.971 100.669 1050.477 102.93 1049.223 104.184 C 1048.332 105.075 1046.742 106.295 1045.894 107.143 C 1044.87 108.167 1045.412 110.953 1044.415 111.95 C 1043.182 113.183 1044.908 117.374 1043.676 118.607 C 1040.325 121.958 1043.203 125.468 1041.087 129.701 C 1040.674 130.527 1038.803 134.443 1039.978 135.618 C 1041.398 137.039 1043.537 136.958 1044.785 138.207 C 1049.641 143.062 1055.517 146.719 1060.317 151.52 C 1060.814 152.017 1064.618 151.053 1064.755 150.78 C 1065.947 148.396 1069.387 146.888 1071.411 144.863 C 1072.059 144.215 1074.366 144.497 1075.109 143.754 C 1077.653 141.21 1075.434 135.663 1077.328 133.769 C 1078.95 132.147 1085.834 131.502 1085.834 129.701 C 1086.572 129.707 1086.716 129.293 1087.274 129.014 C 1087.989 128.656 1089.082 129.238 1089.876 128.84 C 1091.786 127.885 1094.549 126.82 1096.815 126.065 C 1098.018 125.664 1100.6 124.401 1102.192 125.197 C 1103.426 125.814 1102.635 127.548 1103.407 128.32 C 1104.696 129.609 1108.074 132.404 1110.692 131.095 C 1112.06 130.411 1112.49 126.806 1113.121 125.544 C 1113.898 123.989 1116.22 122.271 1117.631 120.861 C 1118.784 119.707 1119.699 116.551 1120.406 115.136 C 1120.49 114.968 1121.2 114.69 1121.273 114.616 C 1122.787 113.102 1124.034 111.628 1126.651 110.973 C 1129.87 110.168 1132.889 110.89 1135.844 109.412 C 1136.706 108.982 1138.316 108.502 1138.967 107.851 C 1140.528 106.29 1141.249 105.409 1143.303 104.382 C 1143.58 104.243 1144.26 103.645 1144.691 103.861 C 1147.863 105.447 1151.128 106.707 1153.885 108.545 C 1157.354 110.858 1159.449 116.818 1165.333 115.136 C 1167.268 114.584 1169.667 113.577 1171.405 112.535 C 1172.37 111.955 1172.912 110.547 1173.833 109.933 C 1176.471 108.174 1179.278 105.916 1182.853 106.81 C 1184.644 107.258 1186.094 108.143 1187.016 109.065 C 1187.718 109.767 1187.413 111.121 1187.71 112.014 C 1188.217 113.533 1189.312 114.977 1190.833 115.483 C 1191.718 115.779 1194.221 114.882 1194.822 115.483 C 1197.092 117.753 1199.572 118.592 1202.455 120.514 C 1203.773 121.393 1206.059 121.362 1207.485 122.075 C 1209.616 123.14 1212.764 122.301 1215.118 122.595 C 1217.429 122.884 1219.544 123.349 1221.536 124.677 C 1223.266 125.83 1223.556 127.615 1224.138 129.361 C 1224.338 129.961 1223.812 131.117 1224.311 131.616 C 1224.912 132.216 1224.601 133.41 1225.005 134.218 C 1225.616 135.439 1226.566 136.299 1227.26 136.993 C 1230.275 140.008 1235.331 138.86 1238.882 140.636 C 1241.309 141.849 1243.699 144.758 1245.474 146.534 C 1245.903 146.962 1245.632 148.221 1245.821 148.789 C 1246.236 150.036 1246.828 154.059 1246.168 155.38 C 1245.862 155.992 1244.981 158.877 1245.647 159.543 C 1246.692 160.588 1248.215 161.243 1249.29 162.319 C 1249.808 162.837 1249.285 164.916 1249.811 165.441 C 1250.362 165.993 1253.786 168.751 1255.188 167.349 C 1255.672 166.866 1255.383 165.593 1256.055 164.921 C 1257.397 163.579 1260.889 162.816 1262.3 164.227 C 1264.027 165.954 1262.437 170.014 1263.167 172.206 C 1263.796 174.092 1264.569 176.629 1264.902 178.624 C 1265.127 179.977 1265.046 182.253 1266.463 182.961 C 1267.233 183.346 1267.626 183.655 1268.545 183.655 C 1269.128 183.655 1270.222 184.117 1270.8 183.828 C 1272.081 183.188 1273.694 182.322 1274.616 181.4 C 1276.023 179.993 1276.577 177.184 1277.912 175.849 C 1279.189 174.572 1282.034 174.916 1283.636 174.114 C 1284.57 173.648 1285.706 174.573 1286.411 174.808 C 1287.394 175.136 1288.555 174.829 1289.534 175.155 C 1292.853 176.261 1294.597 177.716 1295.432 181.053 C 1296.738 186.278 1299.226 193.39 1295.085 197.532 C 1294.355 198.262 1294.288 200.063 1293.697 200.654 C 1292.174 202.178 1295.482 205.041 1296.125 205.685 C 1296.687 206.246 1295.085 208.877 1295.085 209.848 C 1295.043 210.156 1293.299 212.176 1292.83 212.411 C 1291.403 213.125 1290.074 213.258 1288.84 214.493 C 1288.257 215.075 1288.493 217.276 1288.493 218.135 C 1288.493 221.163 1288.531 226.017 1289.881 228.717 C 1290.563 230.081 1292.717 233.973 1291.615 236.176 C 1290.508 238.39 1289.755 241.158 1288.146 242.767 C 1287.346 243.568 1285.67 245.117 1285.197 246.063 C 1284.5 247.457 1282.359 248.35 1281.034 249.012 C 1280.173 249.443 1279.46 250.58 1278.432 251.094 C 1277.638 251.491 1277.431 252.576 1277.044 253.349 C 1275.433 256.571 1274.898 260.614 1276.177 264.45 C 1276.874 266.542 1280.853 268.436 1283.289 269.654 C 1286.624 271.322 1289.683 276.357 1291.095 279.889 C 1292.27 282.826 1293.226 286.53 1295.258 288.562 C 1295.81 289.114 1295.698 290.216 1296.299 290.817 C 1297.606 292.124 1299.126 293.123 1300.289 294.286 C 1300.782 294.78 1300.993 299.317 1301.156 299.317 C 1300.527 299.69 1300.025 301.339 1300.711 302.025 C 1302.474 303.787 1306.094 303.323 1307.909 305.137 C 1308.164 305.393 1307.905 307.475 1307.714 307.666 C 1304.854 310.527 1302.462 309.692 1302.462 315.059 C 1302.462 319.256 1305.182 323.81 1307.52 326.147 C 1307.781 326.409 1307.725 330.21 1307.52 330.622 C 1305.932 333.797 1304.772 334.427 1301.489 336.069 C 1298.589 337.519 1293.848 334.371 1291.373 336.847 C 1290.351 337.869 1292.069 341.239 1292.54 341.71 C 1293.986 343.156 1296.82 342.89 1296.82 345.601 C 1296.82 345.88 1296.997 347.175 1296.82 347.352 C 1296.335 347.837 1296.082 348.245 1295.653 349.103 C 1295.127 350.154 1296.446 352.979 1295.847 353.577 C 1293 356.423 1288.419 356.124 1284.953 357.857 C 1282.545 359.061 1279.563 357.023 1277.755 358.83 C 1277.006 359.579 1277.305 362.598 1277.755 363.499 C 1278.638 365.265 1277.95 369.213 1277.95 371.28 C 1277.95 372.065 1278.193 373.273 1277.95 374.004 C 1276.78 377.511 1273.698 377.866 1271.53 380.034 C 1270.267 381.298 1269.277 382.676 1268.029 383.925 C 1266.509 385.445 1267.168 390.233 1265.499 391.901 C 1264.751 392.649 1266.362 393.846 1264.721 393.846 C 1264.466 402.278 1272.936 396.371 1275.49 401.479 C 1277.978 406.455 1286.44 414.009 1293.128 417.353 C 1296.102 418.841 1299.958 418.784 1303.27 420.44 C 1306.923 422.267 1307.332 425.104 1305.475 428.818 C 1305.185 429.398 1302.671 432.629 1304.152 434.11 C 1305.136 435.094 1312.307 434.11 1313.853 434.11 C 1315.473 434.11 1318.981 436.919 1320.026 435.874 C 1321.979 433.92 1325.026 432.937 1327.082 434.992 C 1328.875 436.785 1332.893 432.424 1334.578 434.11 C 1340.768 440.3 1336.946 447.011 1333.255 454.394 C 1331.256 458.393 1328.729 465.974 1325.759 468.945 C 1323.376 471.328 1319.279 474.102 1316.94 476.442 C 1314.658 478.723 1318.951 482.863 1319.585 483.497 C 1320.99 484.902 1326.102 483.399 1327.523 484.82 C 1330.721 488.018 1338.425 488.226 1342.074 491.875 C 1344.317 494.118 1342.203 496.543 1343.838 499.812 C 1344.86 501.857 1348.116 503.208 1349.129 504.222 C 1351.131 506.224 1347.462 512.792 1348.688 515.246 C 1349.437 516.744 1352.007 518.565 1353.098 519.655 C 1355.002 521.56 1352.688 527.593 1350.893 527.593 C 1351.422 531.448 1353.55 530.37 1355.226 532.045 C 1355.712 532.531 1355.689 534.093 1356.177 534.581 C 1356.784 535.188 1356.494 538.062 1356.494 539.019 C 1356.494 542.861 1353.311 546.284 1355.226 550.113 C 1357.558 554.777 1365.381 555.843 1367.905 560.891 C 1369.922 564.923 1374.425 566.458 1378.366 570.401 C 1381.774 573.811 1387.016 577.42 1391.997 579.911 C 1395.424 581.624 1399.277 582.13 1403.408 582.13 C 1405.314 582.13 1409.104 581.803 1410.382 583.081 C 1412.4 585.099 1413.624 589.175 1415.771 591.322 C 1417.328 592.879 1422.153 590.414 1424.013 592.273 C 1425.627 593.887 1421.653 598.143 1424.964 599.247 C 1428.375 600.384 1429.694 598.321 1431.938 596.077 C 1432.173 595.842 1434.434 595.403 1434.791 595.76 C 1435.694 596.663 1434.148 601.145 1435.425 601.783 C 1437.281 602.711 1440.26 601.189 1442.082 602.1 C 1442.784 602.451 1442.935 603.904 1443.349 604.319 C 1444.103 605.072 1445.582 604.65 1446.202 605.27 C 1446.588 605.656 1446.202 608.468 1446.202 609.074 C 1446.202 611.211 1443.087 614.037 1441.764 616.682 C 1439.658 620.895 1445.231 625.599 1443.032 629.995 C 1440.576 634.909 1438.512 641.973 1436.376 648.381 C 1435.531 650.913 1433.251 655.309 1431.938 656.623 C 1431.047 657.513 1432.384 660.297 1431.621 661.061 C 1430.753 661.929 1429.349 661.43 1428.768 662.011 C 1426.749 664.03 1424.013 668.986 1426.866 671.838 C 1427.68 672.652 1430.005 670.54 1430.987 671.521 C 1432.572 673.106 1437.044 672.507 1438.595 674.057 C 1439.775 675.238 1444.952 678.486 1447.47 677.227 C 1448.341 676.792 1448.502 675.76 1449.372 675.325 C 1451.059 674.482 1453.242 677.479 1454.444 676.276 C 1455.131 675.589 1457.561 676.646 1458.248 675.959 C 1460.376 673.831 1464.299 674.029 1466.173 672.155 C 1467.658 670.67 1473.332 673.238 1474.732 671.838 C 1476.719 669.851 1479.186 669.611 1481.705 668.351 C 1484.963 666.723 1485.745 671.48 1487.728 672.472 C 1490.37 673.793 1495.43 672.519 1498.506 674.057 C 1502.06 675.834 1502.076 686.336 1508.016 680.397 C 1509.131 680.252 1508.919 678.116 1510.093 678.703 C 1511.51 679.411 1512.533 682.434 1513.448 683.349 C 1514.57 684.471 1517.544 683.573 1518.868 684.897 C 1520.655 686.685 1521.1 689.71 1522.998 691.608 C 1523.826 692.436 1526.282 692.195 1527.127 691.35 C 1527.395 691.082 1528.772 691.434 1529.192 691.35 C 1531.336 690.921 1536.27 689.211 1538.484 690.317 C 1542.106 692.128 1543.434 698.622 1545.711 700.899 C 1546.878 702.067 1544.142 704.275 1543.646 704.771 C 1542.849 705.567 1540.83 705.786 1539.774 706.578 C 1537.182 708.522 1534.46 711.375 1532.289 713.546 C 1532.179 713.657 1532.031 714.694 1532.031 714.837 C 1532.031 718.629 1534.499 714.981 1535.903 716.385 C 1536.227 716.71 1535.903 719.013 1535.903 719.483 C 1535.903 722.806 1535.387 725.625 1535.387 729.032 C 1535.387 730.93 1536.03 732.773 1536.935 733.678 C 1537.662 734.405 1538.914 734.023 1539.516 735.227 C 1540.063 736.32 1540.056 739.121 1540.807 739.872 C 1541.681 740.747 1543.424 740.665 1544.42 741.163 C 1546.856 742.38 1548.311 745.302 1550.873 746.583 C 1553.229 747.761 1556.939 746.972 1558.874 748.906 C 1561.725 751.756 1561.505 757.216 1564.036 759.746 C 1564.574 760.284 1565.751 759.146 1566.1 758.972 C 1566.642 758.701 1566.468 752.887 1568.939 755.358 C 1571.602 758.021 1568.014 763.284 1572.295 765.424 C 1575.996 767.274 1581.245 764.65 1584.942 764.65 C 1586.281 764.65 1588.542 764.379 1589.329 765.166 C 1591.359 767.196 1586.552 771.815 1585.974 772.393 C 1583.385 774.983 1589.192 780.015 1587.006 782.201 C 1584.777 784.43 1579.626 787.984 1582.877 791.234 C 1582.676 793.075 1582.773 795.544 1584.15 796.921 C 1585.37 798.141 1582.986 800.295 1582.676 800.605 C 1578.333 804.948 1572.644 798.805 1567.572 801.342 C 1562.041 804.108 1561.052 807.549 1556.52 809.815 C 1553.54 811.305 1549.065 809.164 1546.942 811.289 C 1545.39 812.841 1546.1 817.394 1545.1 819.393 C 1542.585 824.422 1541.855 829.637 1538.1 833.392 C 1535.449 836.044 1531.407 838.98 1528.522 841.865 C 1527.309 843.079 1523.746 842.589 1522.259 844.076 C 1519.97 846.365 1519.309 850.71 1517.102 852.917 C 1514.589 855.43 1510.11 855.488 1507.523 858.075 C 1505.949 859.649 1505.041 862.079 1502.734 863.233 C 1500.089 864.555 1495.761 862.298 1493.156 863.601 C 1491.879 864.239 1490.792 865.596 1489.84 866.548 C 1487.89 868.498 1482.45 867.48 1479.893 868.759 C 1476.75 870.33 1469.997 868.072 1468.842 866.917 C 1468.35 866.425 1466.754 867.039 1466.263 866.548 C 1463.937 864.222 1455.591 870.611 1452.632 867.653 C 1451.359 866.38 1451.119 863.931 1449.685 862.496 C 1449.194 862.005 1447.229 862.987 1446.738 862.496 C 1444.878 860.637 1439.519 861.171 1437.528 859.18 C 1435.901 857.554 1434.027 855.311 1432.37 853.654 C 1431.633 852.917 1432.739 850.339 1432.002 849.602 C 1430.321 847.921 1429.945 843.861 1428.318 842.234 C 1425.593 839.509 1420.3 839.006 1417.266 835.971 C 1414.948 833.653 1409.654 834.254 1407.688 832.287 C 1407.534 832.134 1404.157 832.134 1404.004 832.287 C 1401.85 834.44 1399.486 836.805 1397.372 838.918 C 1396.841 839.45 1392.949 838.918 1392.215 838.918 C 1390.048 838.918 1381.477 838.127 1380.058 836.708 C 1379.555 836.205 1377.245 836.843 1376.742 836.34 C 1376.384 835.982 1372.582 834.237 1371.585 835.234 C 1370.295 836.524 1372.137 840.945 1370.848 842.234 C 1368.004 845.078 1366.981 850.522 1364.217 853.286 C 1361.898 855.604 1370.931 859.465 1367.532 862.864 C 1365.824 864.573 1363.278 864.908 1361.638 866.548 C 1361.024 867.162 1361.883 869.25 1361.269 869.864 C 1358.245 872.888 1358.761 877.898 1356.112 880.547 C 1353.771 882.889 1347.228 880.221 1345.06 882.389 C 1343.771 883.679 1347.685 885.797 1348.007 886.442 C 1350.008 890.445 1358.778 892.791 1362.375 896.388 C 1363.234 897.248 1362.62 899.581 1363.48 900.441 C 1364.463 901.424 1365.288 902.617 1366.059 903.388 C 1366.857 904.186 1365.26 907.379 1366.059 908.177 C 1368.885 911.003 1369.005 915.913 1371.585 918.492 C 1374.819 921.726 1376.7 927.128 1381.531 929.544 C 1384.631 931.094 1389.351 930.364 1391.478 932.491 C 1392.209 933.222 1391.253 936.288 1390.741 936.544 C 1386.803 938.513 1386.321 940.508 1386.321 946.49 C 1386.689 948.982 1392.357 948.165 1393.32 950.092 C 1393.771 950.994 1395.435 951.47 1396.267 952.302 C 1398.886 954.921 1398.48 957.833 1399.951 960.775 C 1402.533 965.938 1394.607 969.435 1392.583 971.459 C 1391.856 972.187 1391.295 974.59 1390.373 975.511 C 1389.56 976.325 1385.678 976.06 1385.215 976.985 C 1384.541 978.333 1385.587 980.675 1385.952 981.406 C 1386.637 982.775 1389.052 983.553 1390.004 985.458 C 1391.274 987.996 1390.404 990.646 1392.215 992.458 C 1392.758 993.001 1392.132 994.953 1392.583 995.405 C 1395.404 998.226 1394.622 1001.323 1396.636 1005.352 C 1397.799 1007.679 1401.818 1009.797 1403.267 1011.246 C 1404.262 1012.241 1415.218 1012.394 1413.213 1016.404 C 1412.519 1017.793 1408.872 1019.574 1406.951 1018.614 C 1406.493 1018.385 1405.314 1015.83 1404.372 1016.772 C 1402.188 1018.956 1401.935 1022.525 1399.583 1024.877 C 1398.374 1026.086 1396.255 1024.889 1395.162 1025.982 C 1394.115 1027.029 1395.689 1029.377 1396.267 1029.666 C 1398.414 1030.739 1400.394 1028.045 1402.162 1028.929 C 1404.838 1030.267 1406.831 1036.785 1403.635 1039.981 C 1400.317 1043.3 1399.101 1039.753 1397.741 1037.034 C 1397.187 1035.926 1396.464 1033.153 1395.162 1034.455 C 1394.049 1035.568 1395.911 1038.163 1396.267 1038.876 C 1397.687 1041.714 1400.071 1042.679 1401.793 1044.402 C 1403.356 1045.965 1398.511 1051.067 1399.583 1052.138 C 1400.135 1052.691 1402.346 1051.585 1402.898 1052.138 C 1406.3 1055.54 1405.846 1062.32 1405.846 1068.347 C 1405.846 1069.834 1406.099 1073.988 1405.109 1074.979 C 1403.36 1076.727 1400.759 1076.751 1398.846 1078.663 C 1396.64 1080.868 1401.122 1085.511 1402.162 1086.031 C 1404.81 1087.355 1407.547 1087.363 1410.635 1090.451 C 1411.403 1091.219 1414.414 1089.946 1415.424 1090.451 C 1416.68 1091.079 1418.622 1092.427 1419.108 1093.399 C 1419.262 1093.706 1419.904 1095.549 1419.476 1095.977 C 1416.836 1098.617 1420.643 1107.705 1418.003 1110.345 C 1417.803 1110.544 1416.946 1114.078 1417.266 1114.397 C 1420.636 1117.767 1425.898 1111.978 1429.791 1115.871 C 1430.59 1116.669 1428.993 1119.862 1429.791 1120.66 C 1431.852 1122.721 1432.524 1135.027 1429.055 1135.027 C 1427.394 1135.559 1423.73 1137.936 1422.792 1138.875 C 1421.316 1140.35 1415.45 1137.598 1414.319 1137.033 C 1412.128 1135.937 1408.568 1137.473 1406.214 1136.296 C 1401.51 1133.944 1395.25 1135.097 1390.004 1133.349 C 1386.845 1132.295 1381.593 1133.042 1378.953 1130.401 C 1378.136 1129.585 1377.515 1128.227 1376.374 1127.086 C 1376.143 1126.855 1372.093 1126.946 1371.953 1127.086 C 1371.011 1128.028 1368.137 1128.323 1367.164 1129.296 C 1365.184 1131.276 1364.738 1133.933 1363.112 1135.559 C 1361.421 1137.25 1357.531 1135.669 1356.112 1138.506 C 1353.833 1143.064 1353.959 1148.764 1350.586 1152.137 C 1347.987 1154.736 1341.425 1146.259 1339.166 1145.506 C 1335.477 1144.276 1328.993 1143.436 1326.272 1140.717 C 1325.005 1139.45 1317.459 1141.085 1316.325 1141.085 C 1313.5 1141.085 1308.824 1140.415 1306.747 1141.453 C 1303.865 1142.894 1300.077 1141.492 1297.905 1143.664 C 1293.862 1147.707 1294.757 1155.486 1292.379 1160.242 C 1291.347 1162.305 1287.297 1161.933 1286.485 1163.557 C 1285.237 1166.053 1289.242 1168.905 1288.695 1169.452 C 1284.61 1173.537 1277.529 1175.092 1273.223 1179.398 C 1271.767 1180.854 1275.093 1184.896 1273.591 1186.398 C 1271.775 1188.214 1268.837 1191.169 1266.591 1192.292 C 1265.224 1192.976 1263.151 1192.909 1262.171 1194.871 C 1258.364 1202.488 1254.061 1208.875 1249.645 1213.291 C 1247.283 1215.653 1253.509 1219.373 1251.119 1221.764 C 1248.372 1224.511 1243.977 1225.221 1241.54 1227.658 C 1240.925 1228.274 1243.256 1231.831 1243.751 1232.079 C 1244.311 1232.359 1245.15 1231.268 1245.593 1231.711 C 1246.097 1232.215 1246.585 1239.192 1245.961 1239.815 C 1244.914 1240.863 1244.016 1243.551 1241.909 1244.605 C 1241.07 1245.024 1237.439 1245.439 1237.12 1246.078 C 1236.41 1247.497 1233.718 1254.011 1234.541 1255.656 C 1234.938 1256.452 1237.307 1258.416 1236.383 1259.34 C 1234.116 1261.606 1232.905 1261.876 1231.225 1265.235 C 1230.33 1267.025 1232.589 1269.139 1231.962 1270.392 C 1231.332 1271.654 1228.962 1271.234 1228.278 1272.603 C 1227.899 1273.361 1227.715 1274.834 1227.173 1275.918 C 1225.902 1278.461 1228.589 1282.066 1229.383 1283.655 C 1229.733 1284.354 1228.852 1286.439 1229.383 1286.97 C 1231.052 1288.639 1235.445 1288.98 1235.646 1289.181 C 1238.452 1291.987 1234.897 1296.155 1236.383 1299.127 C 1236.716 1299.793 1238.114 1301.964 1238.593 1302.443 C 1239.288 1303.138 1238.997 1308.408 1239.33 1309.074 C 1240.118 1310.649 1242.782 1311.557 1243.382 1312.758 C 1245.121 1316.234 1237.465 1316.373 1238.962 1320.863 C 1239.763 1323.268 1243.468 1322.79 1244.488 1323.81 C 1245.409 1324.731 1244.303 1327.678 1245.224 1328.599 C 1248.685 1332.058 1247.63 1338.223 1248.908 1343.335 C 1249.229 1344.617 1251.119 1346.964 1251.119 1348.124 C 1251.119 1348.619 1245.467 1345.608 1244.119 1346.282 C 1242.182 1347.251 1241.573 1348.829 1240.067 1350.335 C 1238.891 1351.51 1236.823 1351.368 1236.014 1352.177 C 1235.011 1353.18 1236.525 1357.25 1236.751 1357.702 C 1238.143 1360.487 1235.705 1366.116 1234.172 1367.649 C 1233.327 1368.495 1230.47 1366.506 1230.12 1365.807 C 1228.809 1363.186 1225.111 1361.018 1222.015 1361.018 C 1221.535 1361.018 1219.585 1360.133 1219.068 1360.65 C 1214.895 1364.822 1217.384 1355.649 1216.489 1354.755 C 1214.935 1353.201 1209.421 1354.375 1207.28 1354.019 C 1204.946 1353.63 1202.702 1350.022 1201.754 1348.124 C 1199.586 1343.79 1198.438 1340.998 1198.438 1335.599 C 1198.438 1332.825 1200.427 1328.526 1199.175 1326.02 C 1193.927 1315.525 1184.781 1301.607 1171.913 1298.391 C 1161.366 1295.754 1149.446 1295.439 1140.6 1302.075 C 1137.498 1304.401 1135.722 1307.321 1133.968 1309.074 C 1132.234 1310.808 1127.363 1304.259 1125.495 1306.127 C 1124.177 1307.446 1124.845 1311.472 1122.917 1312.758 C 1118.246 1315.871 1106.805 1315.435 1103.023 1311.653 C 1099.598 1308.227 1099.74 1300.633 1096.76 1297.654 C 1094.022 1294.915 1090.605 1299.02 1089.024 1300.601 C 1088.402 1301.223 1083.935 1302.04 1083.13 1302.443 C 1082.082 1302.967 1079.446 1301.616 1079.446 1301.338 C 1079.824 1302.152 1077.847 1307.91 1077.413 1308.345 C 1077.049 1308.708 1073.682 1310.806 1072.524 1309.648 C 1072.264 1309.388 1070.437 1307.824 1069.591 1308.67 C 1068.683 1309.578 1068.58 1311.409 1068.287 1312.582 C 1067.134 1317.191 1064.514 1325.806 1061.443 1328.877 C 1060.655 1329.665 1058.067 1328.435 1057.532 1327.9 C 1054.807 1325.175 1052.346 1324.137 1048.732 1325.944 C 1043.109 1328.755 1040.976 1333.766 1033.74 1333.766 C 1032.999 1333.766 1029.887 1334.803 1029.177 1334.092 C 1026.673 1331.588 1027.041 1327.032 1025.918 1323.663 C 1023.681 1316.953 1020.48 1311.588 1018.421 1305.411 C 1017.914 1303.889 1018.733 1301.558 1019.073 1300.197 C 1020.168 1295.819 1018.447 1288.489 1015.814 1285.856 C 1015.34 1285.382 1015.814 1281.989 1015.814 1281.293 C 1015.814 1278.839 1015.039 1272.415 1016.14 1270.212 C 1016.594 1269.305 1017.364 1267.119 1016.792 1265.975 C 1014.722 1261.835 1007.981 1262.873 1004.407 1261.087 C 1000.354 1259.061 997.467 1264.116 995.607 1265.975 C 991.905 1269.678 987.496 1273.435 983.548 1277.382 C 981.886 1279.044 981.046 1282.545 978.985 1283.575 C 977.916 1284.109 975.92 1277.902 975.074 1277.056 C 973.893 1275.875 969.588 1278.016 968.556 1278.36 C 964.068 1279.856 958.538 1281.563 954.542 1284.227 C 953.557 1284.883 951.149 1285.797 950.631 1286.834 C 948.205 1291.686 944.658 1300.858 946.72 1307.041 C 947.304 1308.795 948.955 1310.443 949.327 1311.93 C 950.437 1316.369 948.767 1321.941 946.394 1324.315 C 945.508 1325.2 944.135 1323.511 943.786 1323.337 C 940.078 1321.482 942.059 1313.787 939.549 1311.278 C 937.59 1309.319 934.543 1319.041 932.053 1317.796 C 929.469 1316.504 929.891 1312.525 929.446 1310.3 C 928.288 1304.511 927.804 1300.51 923.905 1296.612 C 923.384 1296.091 923.19 1292.501 923.579 1291.723 C 925.095 1288.691 926.225 1287.698 927.165 1284.878 C 927.272 1284.557 927.919 1283.025 927.491 1282.597 C 924.739 1279.846 920.597 1285.188 917.713 1284.227 C 915.682 1283.55 914.255 1281.42 913.476 1280.642 C 912.498 1279.664 911.245 1280.504 910.217 1279.99 C 906.678 1278.22 901.486 1276.816 897.832 1278.034 C 893.502 1279.478 887.832 1289.167 882.514 1286.508 C 876.996 1283.749 880.637 1275.83 877.299 1272.494 C 875.976 1271.171 873.029 1270.786 870.781 1269.886 C 867.624 1268.624 865.711 1266.447 863.937 1264.672 C 863.337 1264.072 863.975 1260.031 864.263 1259.457 C 865.448 1257.086 865.338 1251.407 863.611 1249.679 C 862.671 1248.74 860.241 1250.768 859.7 1251.309 C 857.165 1253.844 855.546 1256.441 853.507 1258.479 C 851.876 1260.111 849.606 1261.057 848.618 1264.02 C 847.939 1266.058 848.054 1267.844 846.989 1268.909 C 845.137 1270.76 841.172 1271.14 839.493 1272.82 C 838.38 1273.932 838.735 1275.313 837.863 1277.056 C 836.571 1279.64 831.389 1280.131 829.063 1281.293 C 826.554 1282.548 820.739 1284.526 819.286 1281.619 C 818.158 1279.364 821.427 1274.635 820.915 1274.123 C 820.374 1273.582 817.26 1274.255 816.679 1274.449 C 814.306 1275.24 813.009 1275.399 810.16 1274.449 C 807.155 1273.447 807.564 1270.887 806.575 1268.909 C 805.012 1265.781 800.102 1267.233 798.427 1268.909 C 797.615 1269.72 797.109 1272.848 796.472 1274.123 C 794.798 1277.47 791.692 1280.098 789.953 1283.575 C 788.877 1285.728 793.655 1288.673 791.909 1290.419 C 790.298 1292.03 785.913 1294.915 784.413 1297.915 C 783.742 1299.256 783.261 1301.197 782.783 1302.152 C 782.328 1303.062 783.472 1305.7 782.783 1306.389 C 781.936 1307.236 779.588 1307.345 778.546 1307.693 C 777.871 1307.918 776.319 1308.698 775.613 1308.345 C 774.1 1307.588 773.86 1304.738 773.006 1303.456 C 772.446 1302.616 770.441 1302.847 769.746 1302.152 C 765.051 1297.456 770.343 1287.922 772.028 1284.553 C 772.476 1283.657 773.809 1283.098 774.309 1282.597 C 775.533 1281.373 777.984 1273.561 775.939 1271.516 C 775.017 1270.594 774.876 1268.866 773.657 1268.257 C 770.739 1266.797 766.382 1271.626 762.902 1269.886 C 759.913 1268.392 758.111 1262.438 755.406 1261.087 C 750.089 1258.429 749.308 1264.135 745.629 1265.975 C 745.021 1266.279 739.978 1267.711 739.436 1266.627 C 739.225 1266.206 739.026 1264.261 738.784 1264.02 C 736.924 1262.159 731.54 1265.975 730.31 1265.975 C 725.971 1266.682 719.625 1265.565 715.156 1266.682 C 712.601 1267.321 707.996 1272.413 704.843 1269.26 C 701.727 1266.145 705.38 1256.261 702.265 1253.146 C 698.317 1249.199 696.086 1261.036 693.241 1252.502 C 689.757 1242.051 698.308 1229.252 688.084 1224.141 C 685.559 1222.878 666.588 1222.432 665.524 1223.496 C 662.789 1226.231 656.952 1233.713 650.699 1230.586 C 648.11 1229.291 640.243 1229.154 638.452 1227.363 C 637.495 1226.406 637.476 1223.808 636.519 1222.851 C 633.659 1219.991 626.053 1226.642 623.627 1225.43 C 620.576 1223.904 619.644 1217.579 617.826 1215.761 C 615.591 1213.526 604.287 1212.537 600.423 1211.249 C 596.261 1209.862 588.608 1212.967 585.598 1214.472 C 583.071 1215.736 580.756 1221.075 577.863 1219.629 C 572.109 1216.751 571.239 1207.204 568.195 1204.159 C 565.344 1201.307 561.633 1207.266 559.815 1205.448 C 554.813 1200.446 542.54 1202.289 535.966 1199.002 C 534.799 1198.419 530.489 1199.327 529.521 1198.358 C 526.942 1195.779 524.418 1191.967 521.786 1189.334 C 518.22 1185.768 505.084 1191.324 501.804 1188.045 C 500.408 1186.648 499.978 1184.285 498.581 1182.888 C 496.05 1180.357 487.362 1187.784 484.401 1184.822 C 482.784 1183.205 478.001 1184.845 475.377 1183.533 C 472.871 1182.28 468.038 1177.856 465.708 1179.021 C 463.296 1180.227 463.356 1183.742 461.196 1184.822 C 455.411 1187.715 446.898 1183.914 441.215 1186.756 C 437.65 1188.538 432.325 1185.534 429.613 1184.177 C 424.651 1181.696 405.379 1182.628 402.541 1185.467 C 400.029 1187.978 396.186 1175.244 395.45 1174.509 C 393.708 1172.766 385.813 1170.846 382.559 1171.931 C 381.239 1172.371 374.697 1173.737 373.535 1172.575 C 372.305 1171.345 367.072 1170.432 364.511 1171.286 C 359.09 1173.093 354.683 1177.956 349.686 1180.955 C 343.824 1184.472 336.86 1184.757 333.572 1188.045 C 332.391 1189.225 323.451 1188.045 321.97 1188.045 C 310.457 1188.045 302.556 1186.793 293.609 1191.268 C 287.45 1194.348 283.796 1188.545 281.362 1186.111 C 280.953 1185.702 275.617 1185.7 274.916 1185.467 C 268.618 1183.367 260.339 1184.954 254.935 1186.756 C 250.292 1188.303 244.103 1185.34 240.754 1188.689 C 239.632 1189.812 240.898 1198.001 241.399 1199.002 C 243.827 1203.858 241.24 1219.302 239.465 1222.851 C 229.234 1243.313 219.128 1250.921 204.659 1265.393 C 201.673 1268.379 193.559 1266.823 191.123 1269.26 C 188.329 1272.054 174.008 1281.796 168.563 1276.351 C 163.758 1271.546 164.289 1264.223 158.894 1261.525 C 154.045 1259.101 152.648 1266.782 151.159 1266.037 C 146.914 1263.915 146.907 1257.273 144.069 1254.435 C 143.028 1253.394 139.117 1253.586 138.268 1254.435 C 136.865 1255.838 134.355 1258.993 132.467 1260.881 C 128.612 1264.737 116.928 1263.29 111.841 1266.682 C 105.225 1271.093 123.099 1277.94 124.088 1278.929 C 124.912 1279.753 126.402 1296.596 125.377 1297.621 C 124.152 1298.846 118.488 1298.266 120.22 1298.266 C 120.865 1298.266 122.798 1298.266 122.154 1298.266 C 105.508 1296.332 104.106 1275.845 104.106 1259.592 C 104.106 1255.878 107.281 1249.827 105.395 1246.056 C 98.486 1232.238 116.14 1229.291 119.576 1218.984 C 122.164 1211.218 114.218 1207.984 116.353 1201.581 C 117.868 1197.034 118.13 1191.581 120.22 1187.4 C 121.853 1184.134 118.587 1178.419 120.22 1175.153 C 122.553 1170.488 124.732 1165.104 124.732 1160.328 C 124.732 1156.422 126.441 1147.632 124.732 1144.214 C 121.691 1138.132 114.185 1140.113 110.552 1136.479 C 104.664 1130.592 100.974 1124.323 94.437 1117.787 C 92.86 1116.21 88.657 1117.475 86.703 1116.498 C 82.821 1114.557 74.208 1111.094 71.233 1108.118 C 67.006 1103.891 56.178 1105.31 52.541 1101.673 C 48.602 1097.734 51.612 1095.305 49.318 1090.715 C 48.156 1088.392 43.538 1087.535 42.228 1084.914 C 41.008 1082.475 43.178 1073.65 44.161 1072.667 C 50.592 1066.237 52.835 1051.746 60.275 1044.306 C 63.112 1041.469 61.741 1035.106 64.143 1032.704 C 70.513 1026.335 80.396 1023.54 87.347 1016.59 C 90.475 1013.463 91.708 1008.956 95.727 1006.277 C 104.638 1000.336 115.647 999.217 124.732 994.675 C 128.573 992.754 134.271 994.159 136.979 991.452 C 140.575 987.856 150.304 989.084 153.738 985.651 C 155.283 984.105 165.984 984.113 165.984 981.783 C 163.561 967.007 163.406 956.264 163.406 943.181 C 163.406 940.483 162.223 933.945 163.406 931.579 C 167.803 922.786 169.852 913.974 169.852 902.574 C 169.852 899.935 170.985 894.528 169.852 892.261 C 165.689 883.936 161.472 873.201 161.472 863.255 C 161.472 857.709 167.666 849.86 164.051 842.629 C 162.62 839.768 159.664 836.953 157.605 834.894 C 155.192 832.481 157.442 825.707 154.382 822.647 C 152.523 820.788 147.532 819.501 146.647 816.846 C 142.731 805.097 136.147 793.266 130.533 782.04 C 123.351 767.676 122.857 751.863 115.708 737.564 C 112.958 732.063 116.022 724.657 113.13 718.872 C 109.044 710.699 112.058 697.613 110.552 688.577 C 109.157 680.212 105.543 675.337 102.172 668.596 C 99.233 662.717 99.594 651.027 99.594 644.747 C 99.594 640.816 99.268 630.893 101.528 628.633 C 101.963 628.198 105.185 630.783 106.04 631.211 C 110.513 633.447 116.43 634.511 118.931 637.012 C 120.309 638.39 126.61 636.367 127.955 636.367 C 135.628 636.367 139.626 636.436 143.425 640.235 C 143.666 640.476 148.985 640.476 149.226 640.235 C 150.193 639.268 149.548 636.69 150.515 635.723 C 153.224 633.014 158.677 633.362 160.828 631.211 C 162.314 629.725 172.411 630.235 174.364 631.211 C 181.336 634.696 197.233 631.855 205.948 631.855 C 208.987 634.144 213.466 632.572 214.573 633.68 C 216 635.106 232.383 649.385 238.779 642.989 C 249.131 632.638 265.67 622.234 284.398 615.991 C 294.082 612.762 287.148 622.465 289.053 624.37 C 291.831 627.148 305.637 624.543 306.741 623.439 C 315.997 614.183 305.297 591.367 316.051 580.613 C 322.333 574.331 343.35 581.244 349.567 575.027 C 358.368 566.226 368.553 557.904 377.497 548.96 C 384.73 541.726 398.029 544.254 403.564 538.719 C 404.573 537.709 416.697 527.645 420.322 531.271 C 421.408 532.357 424.822 531.116 425.908 532.202 C 429.24 535.533 430.563 547.54 430.563 553.614 C 430.563 558.888 423.708 569.272 427.77 571.303 C 438.17 576.504 444.277 578.071 451.976 570.372 C 453.993 568.355 462.061 572.389 464.079 570.372 C 468.416 566.035 463.228 558.109 465.941 552.683 C 466.833 550.898 471.816 548.609 470.595 546.167 C 469.319 543.613 464.211 544.437 462.217 542.443 C 459.168 539.394 457.906 532.546 454.769 529.409 C 450.793 525.433 440.834 533.163 437.08 529.409 C 435.063 527.391 434.442 523.978 432.425 521.961 C 431.718 521.254 438.903 507.104 439.873 506.134 C 443.41 502.597 434.966 491.49 438.942 487.514 C 448 478.456 453.072 461.282 462.217 452.137 C 464.389 449.964 462.217 434.138 462.217 430.724 C 462.217 413.844 459.4 392.601 466.872 377.658 C 474.206 362.988 486.377 366.531 497.594 355.314 C 500.093 352.815 507.696 356.384 510.628 353.452 C 518.12 345.959 527.726 343.802 534.834 336.694 C 544.154 327.373 537.298 312.653 550.661 305.971 C 560.869 300.867 575.904 304.987 586.969 299.454 C 592.706 296.586 603.062 301.981 607.451 297.592 C 609.315 295.728 609.798 291.521 612.106 289.214 C 615.244 286.075 622.642 285.194 625.14 282.697 C 628.101 279.735 631.621 272.528 633.519 268.732 C 634.51 266.748 641.016 260.402 638.174 257.56 C 625.73 245.117 596.163 247.319 575.797 247.319 Z" style="stroke: rgb(0, 0, 0); fill: rgb(51, 187, 224);"/>
</svg>